# xmcd CD database file
#
# Track frame offsets:
#	182
#	17147
#	33500
#	48630
#	67000
#	99845
#	117305
#	134185
#	154697
#	170455
#	182510
#
# Disc length: 2570 seconds
#
# Revision: 2
# Processed by: cddbd v1.5PL3 Copyright (c) Steve Scherf et al.
# Submitted via: CDex 1.51
#
DISCID=960a080b
DTITLE=Elvin Bishop - Let It Flow
DYEAR=1974
DGENRE=Southern Rock
TTITLE0=Sunshine Special
TTITLE1=Ground Hog
TTITLE2=Honey Babe
TTITLE3=Stealin' Watermelons
TTITLE4=Travelin' Shoes
TTITLE5=Let It Flow
TTITLE6=Hey, Good Lookin'
TTITLE7=Fishin'
TTITLE8=Can't Go Back
TTITLE9=I Can't Hold Myself In Line
TTITLE10=Bourbon Street
EXTD=YEAR: 1974
EXTT0=
EXTT1=
EXTT2=
EXTT3=
EXTT4=
EXTT5=
EXTT6=
EXTT7=
EXTT8=
EXTT9=
EXTT10=
PLAYORDER=
